<mxfile host="Electron" agent="Mozilla/5.0 (Windows NT 10.0; Win64; x64) AppleWebKit/537.36 (KHTML, like Gecko) draw.io/26.0.9 Chrome/128.0.6613.186 Electron/32.2.5 Safari/537.36" version="26.0.9">
  <diagram id="C5RBs43oDa-KdzZeNtuy" name="Main menu loop">
    <mxGraphModel dx="2340" dy="1009" grid="1" gridSize="10" guides="1" tooltips="1" connect="1" arrows="1" fold="1" page="1" pageScale="1" pageWidth="827" pageHeight="1169" math="0" shadow="0">
      <root>
        <mxCell id="WIyWlLk6GJQsqaUBKTNV-0" />
        <mxCell id="WIyWlLk6GJQsqaUBKTNV-1" parent="WIyWlLk6GJQsqaUBKTNV-0" />
        <mxCell id="sXUtN6VlkRiVxS_-bcPf-6" style="edgeStyle=orthogonalEdgeStyle;rounded=0;orthogonalLoop=1;jettySize=auto;html=1;exitX=0.5;exitY=1;exitDx=0;exitDy=0;entryX=0.5;entryY=0;entryDx=0;entryDy=0;" edge="1" parent="WIyWlLk6GJQsqaUBKTNV-1" source="sXUtN6VlkRiVxS_-bcPf-0" target="sXUtN6VlkRiVxS_-bcPf-4">
          <mxGeometry relative="1" as="geometry" />
        </mxCell>
        <mxCell id="sXUtN6VlkRiVxS_-bcPf-0" value="START" style="ellipse;whiteSpace=wrap;html=1;" vertex="1" parent="WIyWlLk6GJQsqaUBKTNV-1">
          <mxGeometry x="257" y="79" width="50" height="50" as="geometry" />
        </mxCell>
        <mxCell id="sXUtN6VlkRiVxS_-bcPf-22" style="edgeStyle=orthogonalEdgeStyle;rounded=0;orthogonalLoop=1;jettySize=auto;html=1;exitX=0.5;exitY=1;exitDx=0;exitDy=0;entryX=0.5;entryY=0;entryDx=0;entryDy=0;" edge="1" parent="WIyWlLk6GJQsqaUBKTNV-1" source="sXUtN6VlkRiVxS_-bcPf-1" target="sXUtN6VlkRiVxS_-bcPf-11">
          <mxGeometry relative="1" as="geometry">
            <Array as="points">
              <mxPoint x="148" y="349" />
              <mxPoint x="282" y="349" />
            </Array>
          </mxGeometry>
        </mxCell>
        <mxCell id="sXUtN6VlkRiVxS_-bcPf-1" value="&lt;div&gt;&lt;span style=&quot;background-color: transparent; color: light-dark(rgb(0, 0, 0), rgb(255, 255, 255));&quot;&gt;Create required files;&lt;/span&gt;&lt;br&gt;&lt;/div&gt;Create default settings files;&amp;nbsp;" style="whiteSpace=wrap;html=1;align=left;" vertex="1" parent="WIyWlLk6GJQsqaUBKTNV-1">
          <mxGeometry x="64.5" y="259" width="167.5" height="43" as="geometry" />
        </mxCell>
        <mxCell id="sXUtN6VlkRiVxS_-bcPf-21" style="edgeStyle=orthogonalEdgeStyle;rounded=0;orthogonalLoop=1;jettySize=auto;html=1;exitX=0;exitY=0.5;exitDx=0;exitDy=0;entryX=0.5;entryY=0;entryDx=0;entryDy=0;" edge="1" parent="WIyWlLk6GJQsqaUBKTNV-1" source="sXUtN6VlkRiVxS_-bcPf-4" target="sXUtN6VlkRiVxS_-bcPf-1">
          <mxGeometry relative="1" as="geometry" />
        </mxCell>
        <mxCell id="sXUtN6VlkRiVxS_-bcPf-23" style="edgeStyle=orthogonalEdgeStyle;rounded=0;orthogonalLoop=1;jettySize=auto;html=1;exitX=1;exitY=0.5;exitDx=0;exitDy=0;entryX=0.5;entryY=0;entryDx=0;entryDy=0;" edge="1" parent="WIyWlLk6GJQsqaUBKTNV-1" source="sXUtN6VlkRiVxS_-bcPf-4" target="sXUtN6VlkRiVxS_-bcPf-11">
          <mxGeometry relative="1" as="geometry">
            <Array as="points">
              <mxPoint x="412" y="199" />
              <mxPoint x="412" y="349" />
              <mxPoint x="282" y="349" />
            </Array>
          </mxGeometry>
        </mxCell>
        <mxCell id="sXUtN6VlkRiVxS_-bcPf-4" value="first time executing program?" style="rhombus;whiteSpace=wrap;html=1;" vertex="1" parent="WIyWlLk6GJQsqaUBKTNV-1">
          <mxGeometry x="232" y="149" width="100" height="100" as="geometry" />
        </mxCell>
        <mxCell id="sXUtN6VlkRiVxS_-bcPf-8" style="edgeStyle=orthogonalEdgeStyle;rounded=0;orthogonalLoop=1;jettySize=auto;html=1;exitX=0.5;exitY=1;exitDx=0;exitDy=0;" edge="1" parent="WIyWlLk6GJQsqaUBKTNV-1" source="sXUtN6VlkRiVxS_-bcPf-4" target="sXUtN6VlkRiVxS_-bcPf-4">
          <mxGeometry relative="1" as="geometry" />
        </mxCell>
        <mxCell id="sXUtN6VlkRiVxS_-bcPf-9" style="edgeStyle=orthogonalEdgeStyle;rounded=0;orthogonalLoop=1;jettySize=auto;html=1;exitX=0.5;exitY=1;exitDx=0;exitDy=0;" edge="1" parent="WIyWlLk6GJQsqaUBKTNV-1" source="sXUtN6VlkRiVxS_-bcPf-4" target="sXUtN6VlkRiVxS_-bcPf-4">
          <mxGeometry relative="1" as="geometry" />
        </mxCell>
        <mxCell id="sXUtN6VlkRiVxS_-bcPf-18" style="edgeStyle=orthogonalEdgeStyle;rounded=0;orthogonalLoop=1;jettySize=auto;html=1;exitX=1;exitY=0.5;exitDx=0;exitDy=0;entryX=0;entryY=0.5;entryDx=0;entryDy=0;" edge="1" parent="WIyWlLk6GJQsqaUBKTNV-1" source="sXUtN6VlkRiVxS_-bcPf-11" target="sXUtN6VlkRiVxS_-bcPf-17">
          <mxGeometry relative="1" as="geometry" />
        </mxCell>
        <mxCell id="sXUtN6VlkRiVxS_-bcPf-28" style="edgeStyle=orthogonalEdgeStyle;rounded=0;orthogonalLoop=1;jettySize=auto;html=1;exitX=0.5;exitY=1;exitDx=0;exitDy=0;entryX=0.5;entryY=0;entryDx=0;entryDy=0;" edge="1" parent="WIyWlLk6GJQsqaUBKTNV-1" source="sXUtN6VlkRiVxS_-bcPf-11" target="sXUtN6VlkRiVxS_-bcPf-27">
          <mxGeometry relative="1" as="geometry" />
        </mxCell>
        <mxCell id="sXUtN6VlkRiVxS_-bcPf-11" value="Ask user for SQL server login information;" style="whiteSpace=wrap;html=1;align=left;" vertex="1" parent="WIyWlLk6GJQsqaUBKTNV-1">
          <mxGeometry x="167" y="389" width="230" height="30" as="geometry" />
        </mxCell>
        <mxCell id="sXUtN6VlkRiVxS_-bcPf-24" style="edgeStyle=orthogonalEdgeStyle;rounded=0;orthogonalLoop=1;jettySize=auto;html=1;exitX=0.5;exitY=1;exitDx=0;exitDy=0;entryX=0.5;entryY=0;entryDx=0;entryDy=0;" edge="1" parent="WIyWlLk6GJQsqaUBKTNV-1" source="sXUtN6VlkRiVxS_-bcPf-17" target="sXUtN6VlkRiVxS_-bcPf-20">
          <mxGeometry relative="1" as="geometry" />
        </mxCell>
        <mxCell id="sXUtN6VlkRiVxS_-bcPf-17" value="Connect to database;" style="whiteSpace=wrap;html=1;" vertex="1" parent="WIyWlLk6GJQsqaUBKTNV-1">
          <mxGeometry x="442" y="389" width="120" height="30" as="geometry" />
        </mxCell>
        <mxCell id="sXUtN6VlkRiVxS_-bcPf-26" style="edgeStyle=orthogonalEdgeStyle;rounded=0;orthogonalLoop=1;jettySize=auto;html=1;exitX=1;exitY=0.5;exitDx=0;exitDy=0;entryX=0;entryY=0.5;entryDx=0;entryDy=0;" edge="1" parent="WIyWlLk6GJQsqaUBKTNV-1" source="sXUtN6VlkRiVxS_-bcPf-20" target="sXUtN6VlkRiVxS_-bcPf-25">
          <mxGeometry relative="1" as="geometry" />
        </mxCell>
        <mxCell id="sXUtN6VlkRiVxS_-bcPf-29" style="edgeStyle=orthogonalEdgeStyle;rounded=0;orthogonalLoop=1;jettySize=auto;html=1;exitX=0;exitY=0.5;exitDx=0;exitDy=0;" edge="1" parent="WIyWlLk6GJQsqaUBKTNV-1" source="sXUtN6VlkRiVxS_-bcPf-20">
          <mxGeometry relative="1" as="geometry">
            <mxPoint x="282" y="529" as="targetPoint" />
            <Array as="points">
              <mxPoint x="282" y="489" />
            </Array>
          </mxGeometry>
        </mxCell>
        <mxCell id="sXUtN6VlkRiVxS_-bcPf-20" value="succesful ?" style="rhombus;whiteSpace=wrap;html=1;" vertex="1" parent="WIyWlLk6GJQsqaUBKTNV-1">
          <mxGeometry x="462" y="449" width="80" height="80" as="geometry" />
        </mxCell>
        <mxCell id="sXUtN6VlkRiVxS_-bcPf-25" value="Trow an error and ask the user to try again;&lt;div&gt;Close the program;&lt;/div&gt;" style="whiteSpace=wrap;html=1;align=left;" vertex="1" parent="WIyWlLk6GJQsqaUBKTNV-1">
          <mxGeometry x="602" y="459" width="190" height="60" as="geometry" />
        </mxCell>
        <mxCell id="sXUtN6VlkRiVxS_-bcPf-45" style="edgeStyle=orthogonalEdgeStyle;rounded=0;orthogonalLoop=1;jettySize=auto;html=1;exitX=0.5;exitY=1;exitDx=0;exitDy=0;entryX=0.5;entryY=0;entryDx=0;entryDy=0;" edge="1" parent="WIyWlLk6GJQsqaUBKTNV-1" source="sXUtN6VlkRiVxS_-bcPf-27" target="sXUtN6VlkRiVxS_-bcPf-30">
          <mxGeometry relative="1" as="geometry" />
        </mxCell>
        <mxCell id="sXUtN6VlkRiVxS_-bcPf-27" value="Show main menu;" style="whiteSpace=wrap;html=1;align=left;" vertex="1" parent="WIyWlLk6GJQsqaUBKTNV-1">
          <mxGeometry x="222" y="529" width="120" height="30" as="geometry" />
        </mxCell>
        <mxCell id="sXUtN6VlkRiVxS_-bcPf-30" value="Main Menu Option" style="shape=table;startSize=30;container=1;collapsible=0;childLayout=tableLayout;" vertex="1" parent="WIyWlLk6GJQsqaUBKTNV-1">
          <mxGeometry x="177.5" y="589" width="209" height="230" as="geometry" />
        </mxCell>
        <mxCell id="sXUtN6VlkRiVxS_-bcPf-31" value="" style="shape=tableRow;horizontal=0;startSize=0;swimlaneHead=0;swimlaneBody=0;strokeColor=inherit;top=0;left=0;bottom=0;right=0;collapsible=0;dropTarget=0;fillColor=none;points=[[0,0.5],[1,0.5]];portConstraint=eastwest;" vertex="1" parent="sXUtN6VlkRiVxS_-bcPf-30">
          <mxGeometry y="30" width="209" height="40" as="geometry" />
        </mxCell>
        <mxCell id="sXUtN6VlkRiVxS_-bcPf-32" value="Search Products&lt;span style=&quot;white-space: pre;&quot;&gt;&#x9;&lt;/span&gt;" style="shape=partialRectangle;html=1;whiteSpace=wrap;connectable=0;strokeColor=inherit;overflow=hidden;fillColor=none;top=0;left=0;bottom=0;right=0;pointerEvents=1;align=left;" vertex="1" parent="sXUtN6VlkRiVxS_-bcPf-31">
          <mxGeometry width="209" height="40" as="geometry">
            <mxRectangle width="209" height="40" as="alternateBounds" />
          </mxGeometry>
        </mxCell>
        <mxCell id="sXUtN6VlkRiVxS_-bcPf-33" value="" style="shape=tableRow;horizontal=0;startSize=0;swimlaneHead=0;swimlaneBody=0;strokeColor=inherit;top=0;left=0;bottom=0;right=0;collapsible=0;dropTarget=0;fillColor=none;points=[[0,0.5],[1,0.5]];portConstraint=eastwest;" vertex="1" parent="sXUtN6VlkRiVxS_-bcPf-30">
          <mxGeometry y="70" width="209" height="40" as="geometry" />
        </mxCell>
        <mxCell id="sXUtN6VlkRiVxS_-bcPf-34" value="Sell Products" style="shape=partialRectangle;html=1;whiteSpace=wrap;connectable=0;strokeColor=inherit;overflow=hidden;fillColor=none;top=0;left=0;bottom=0;right=0;pointerEvents=1;align=left;" vertex="1" parent="sXUtN6VlkRiVxS_-bcPf-33">
          <mxGeometry width="209" height="40" as="geometry">
            <mxRectangle width="209" height="40" as="alternateBounds" />
          </mxGeometry>
        </mxCell>
        <mxCell id="sXUtN6VlkRiVxS_-bcPf-35" value="" style="shape=tableRow;horizontal=0;startSize=0;swimlaneHead=0;swimlaneBody=0;strokeColor=inherit;top=0;left=0;bottom=0;right=0;collapsible=0;dropTarget=0;fillColor=none;points=[[0,0.5],[1,0.5]];portConstraint=eastwest;" vertex="1" parent="sXUtN6VlkRiVxS_-bcPf-30">
          <mxGeometry y="110" width="209" height="40" as="geometry" />
        </mxCell>
        <mxCell id="sXUtN6VlkRiVxS_-bcPf-36" value="Interface Settings" style="shape=partialRectangle;html=1;whiteSpace=wrap;connectable=0;strokeColor=inherit;overflow=hidden;fillColor=none;top=0;left=0;bottom=0;right=0;pointerEvents=1;align=left;" vertex="1" parent="sXUtN6VlkRiVxS_-bcPf-35">
          <mxGeometry width="209" height="40" as="geometry">
            <mxRectangle width="209" height="40" as="alternateBounds" />
          </mxGeometry>
        </mxCell>
        <mxCell id="sXUtN6VlkRiVxS_-bcPf-37" value="" style="shape=tableRow;horizontal=0;startSize=0;swimlaneHead=0;swimlaneBody=0;strokeColor=inherit;top=0;left=0;bottom=0;right=0;collapsible=0;dropTarget=0;fillColor=none;points=[[0,0.5],[1,0.5]];portConstraint=eastwest;" vertex="1" parent="sXUtN6VlkRiVxS_-bcPf-30">
          <mxGeometry y="150" width="209" height="40" as="geometry" />
        </mxCell>
        <mxCell id="sXUtN6VlkRiVxS_-bcPf-38" value="Client Settings" style="shape=partialRectangle;html=1;whiteSpace=wrap;connectable=0;strokeColor=inherit;overflow=hidden;fillColor=none;top=0;left=0;bottom=0;right=0;pointerEvents=1;align=left;" vertex="1" parent="sXUtN6VlkRiVxS_-bcPf-37">
          <mxGeometry width="209" height="40" as="geometry">
            <mxRectangle width="209" height="40" as="alternateBounds" />
          </mxGeometry>
        </mxCell>
        <mxCell id="sXUtN6VlkRiVxS_-bcPf-39" value="" style="shape=tableRow;horizontal=0;startSize=0;swimlaneHead=0;swimlaneBody=0;strokeColor=inherit;top=0;left=0;bottom=0;right=0;collapsible=0;dropTarget=0;fillColor=none;points=[[0,0.5],[1,0.5]];portConstraint=eastwest;" vertex="1" parent="sXUtN6VlkRiVxS_-bcPf-30">
          <mxGeometry y="190" width="209" height="40" as="geometry" />
        </mxCell>
        <mxCell id="sXUtN6VlkRiVxS_-bcPf-40" value="Exit the program" style="shape=partialRectangle;html=1;whiteSpace=wrap;connectable=0;strokeColor=inherit;overflow=hidden;fillColor=none;top=0;left=0;bottom=0;right=0;pointerEvents=1;align=left;" vertex="1" parent="sXUtN6VlkRiVxS_-bcPf-39">
          <mxGeometry width="209" height="40" as="geometry">
            <mxRectangle width="209" height="40" as="alternateBounds" />
          </mxGeometry>
        </mxCell>
      </root>
    </mxGraphModel>
  </diagram>
</mxfile>
